<svg width="27" height="38" viewBox="0 0 27 38" fill="none" xmlns="http://www.w3.org/2000/svg">
<g clip-path="url(#clip0)">
<path d="M13.5596 6.95027L5.30042 14.069V21.7522C5.30042 21.9512 5.37593 22.142 5.51035 22.2826C5.64477 22.4233 5.82707 22.5023 6.01717 22.5023L11.0371 22.4887C11.2266 22.4877 11.4079 22.4083 11.5416 22.2677C11.6752 22.1271 11.7502 21.9369 11.7502 21.7386V17.2517C11.7502 17.0528 11.8258 16.862 11.9602 16.7213C12.0946 16.5807 12.2769 16.5017 12.467 16.5017H15.334C15.5241 16.5017 15.7064 16.5807 15.8408 16.7213C15.9752 16.862 16.0507 17.0528 16.0507 17.2517V21.7354C16.0504 21.8341 16.0688 21.9319 16.1046 22.0231C16.1405 22.1144 16.1933 22.1974 16.2599 22.2673C16.3264 22.3372 16.4056 22.3926 16.4927 22.4305C16.5798 22.4683 16.6732 22.4878 16.7675 22.4878L21.7856 22.5023C21.9757 22.5023 22.158 22.4233 22.2924 22.2826C22.4268 22.142 22.5023 21.9512 22.5023 21.7522V14.0639L14.245 6.95027C14.1479 6.86838 14.027 6.82373 13.9023 6.82373C13.7776 6.82373 13.6567 6.86838 13.5596 6.95027ZM26.6057 11.7888L22.8607 8.55826V2.06488C22.8607 1.91568 22.8041 1.77259 22.7033 1.66709C22.6025 1.56159 22.4657 1.50232 22.3232 1.50232H19.8145C19.672 1.50232 19.5352 1.56159 19.4344 1.66709C19.3336 1.77259 19.277 1.91568 19.277 2.06488V5.46886L15.2663 2.01566C14.8814 1.6842 14.3985 1.50298 13.9 1.50298C13.4016 1.50298 12.9186 1.6842 12.5337 2.01566L1.19436 11.7888C1.13992 11.8359 1.09489 11.8937 1.06182 11.959C1.02876 12.0243 1.00832 12.0958 1.00166 12.1694C0.995005 12.243 1.00227 12.3172 1.02303 12.3878C1.0438 12.4585 1.07766 12.5241 1.12268 12.5811L2.265 14.0343C2.3099 14.0915 2.36513 14.1388 2.42752 14.1736C2.48991 14.2083 2.55825 14.2299 2.62861 14.237C2.69897 14.2441 2.76998 14.2366 2.83757 14.2149C2.90516 14.1933 2.96801 14.1579 3.02251 14.1108L13.5596 5.02818C13.6567 4.94629 13.7776 4.90164 13.9023 4.90164C14.027 4.90164 14.1479 4.94629 14.245 5.02818L24.7825 14.1108C24.8369 14.1579 24.8996 14.1933 24.9671 14.215C25.0346 14.2368 25.1056 14.2444 25.1759 14.2374C25.2462 14.2304 25.3145 14.209 25.3769 14.1744C25.4393 14.1398 25.4946 14.0927 25.5396 14.0358L26.6819 12.5825C26.7268 12.5252 26.7606 12.4592 26.7811 12.3882C26.8016 12.3173 26.8085 12.2428 26.8015 12.1691C26.7944 12.0953 26.7734 12.0237 26.7398 11.9585C26.7063 11.8932 26.6607 11.8355 26.6057 11.7888Z" fill="#10B981"/>
</g>
<path d="M6.33691 35H5.39453V31.7139H1.81055V35H0.873047V27.8906H1.81055V30.9473H5.39453V27.8906H6.33691V35ZM7.62109 32.3096C7.62109 31.792 7.72201 31.3265 7.92383 30.9131C8.12891 30.4997 8.41211 30.1807 8.77344 29.9561C9.13802 29.7314 9.55306 29.6191 10.0186 29.6191C10.738 29.6191 11.319 29.8682 11.7617 30.3662C12.2077 30.8643 12.4307 31.5267 12.4307 32.3535V32.417C12.4307 32.9313 12.3314 33.3936 12.1328 33.8037C11.9375 34.2106 11.6559 34.528 11.2881 34.7559C10.9235 34.9837 10.5036 35.0977 10.0283 35.0977C9.31217 35.0977 8.73112 34.8486 8.28516 34.3506C7.84245 33.8525 7.62109 33.1934 7.62109 32.373V32.3096ZM8.5293 32.417C8.5293 33.0029 8.66439 33.4733 8.93457 33.8281C9.20801 34.1829 9.57259 34.3604 10.0283 34.3604C10.4873 34.3604 10.8519 34.1813 11.1221 33.8232C11.3923 33.4619 11.5273 32.9574 11.5273 32.3096C11.5273 31.7301 11.389 31.2614 11.1123 30.9033C10.8389 30.542 10.4743 30.3613 10.0186 30.3613C9.57259 30.3613 9.21289 30.5387 8.93945 30.8936C8.66602 31.2484 8.5293 31.7562 8.5293 32.417ZM14.4131 29.7168L14.4375 30.3027C14.8249 29.847 15.3473 29.6191 16.0049 29.6191C16.7438 29.6191 17.2467 29.9023 17.5137 30.4688C17.6895 30.2148 17.9173 30.0098 18.1973 29.8535C18.4805 29.6973 18.8141 29.6191 19.1982 29.6191C20.3571 29.6191 20.9463 30.2327 20.9658 31.46V35H20.0625V31.5137C20.0625 31.1361 19.9762 30.8545 19.8037 30.6689C19.6312 30.4801 19.3415 30.3857 18.9346 30.3857C18.5993 30.3857 18.321 30.4867 18.0996 30.6885C17.8783 30.887 17.7497 31.1556 17.7139 31.4941V35H16.8057V31.5381C16.8057 30.7699 16.4297 30.3857 15.6777 30.3857C15.0853 30.3857 14.68 30.638 14.4619 31.1426V35H13.5586V29.7168H14.4131ZM24.5254 35.0977C23.8092 35.0977 23.2266 34.8633 22.7773 34.3945C22.3281 33.9225 22.1035 33.2926 22.1035 32.5049V32.3389C22.1035 31.8148 22.2028 31.3477 22.4014 30.9375C22.6032 30.5241 22.8831 30.2018 23.2412 29.9707C23.6025 29.7363 23.9932 29.6191 24.4131 29.6191C25.0999 29.6191 25.6338 29.8454 26.0146 30.2979C26.3955 30.7503 26.5859 31.3981 26.5859 32.2412V32.6172H23.0068C23.0199 33.138 23.1712 33.5596 23.4609 33.8818C23.7539 34.2008 24.125 34.3604 24.5742 34.3604C24.8932 34.3604 25.1634 34.2952 25.3848 34.165C25.6061 34.0348 25.7998 33.8623 25.9658 33.6475L26.5176 34.0771C26.0749 34.7575 25.4108 35.0977 24.5254 35.0977ZM24.4131 30.3613C24.0485 30.3613 23.7425 30.4948 23.4951 30.7617C23.2477 31.0254 23.0947 31.3965 23.0361 31.875H25.6826V31.8066C25.6566 31.3477 25.5329 30.9928 25.3115 30.7422C25.0902 30.4883 24.7907 30.3613 24.4131 30.3613Z" fill="#10B981"/>
<defs>
<clipPath id="clip0">
<rect width="25.8" height="24" fill="white" transform="translate(1)"/>
</clipPath>
</defs>
</svg>
