<svg width="38" height="38" viewBox="0 0 38 38" fill="none" xmlns="http://www.w3.org/2000/svg">
<path d="M5.25 33.1445H2.27148L1.60254 35H0.635742L3.35059 27.8906H4.1709L6.89062 35H5.92871L5.25 33.1445ZM2.55469 32.373H4.97168L3.76074 29.0479L2.55469 32.373ZM9.8252 34.3604C10.1475 34.3604 10.429 34.2627 10.6699 34.0674C10.9108 33.8721 11.0443 33.6279 11.0703 33.335H11.9248C11.9085 33.6377 11.8044 33.9258 11.6123 34.1992C11.4202 34.4727 11.1631 34.6908 10.8408 34.8535C10.5218 35.0163 10.1833 35.0977 9.8252 35.0977C9.10579 35.0977 8.53288 34.8584 8.10645 34.3799C7.68327 33.8981 7.47168 33.2406 7.47168 32.4072V32.2559C7.47168 31.7415 7.56608 31.2842 7.75488 30.8838C7.94368 30.4834 8.21387 30.1725 8.56543 29.9512C8.92025 29.7298 9.33854 29.6191 9.82031 29.6191C10.4128 29.6191 10.9043 29.7965 11.2949 30.1514C11.6888 30.5062 11.8988 30.9668 11.9248 31.5332H11.0703C11.0443 31.1914 10.9141 30.9115 10.6797 30.6934C10.4486 30.472 10.1621 30.3613 9.82031 30.3613C9.36133 30.3613 9.00488 30.5273 8.75098 30.8594C8.50033 31.1882 8.375 31.665 8.375 32.29V32.4609C8.375 33.0697 8.50033 33.5384 8.75098 33.8672C9.00163 34.196 9.3597 34.3604 9.8252 34.3604ZM15.0596 34.3604C15.3818 34.3604 15.6634 34.2627 15.9043 34.0674C16.1452 33.8721 16.2786 33.6279 16.3047 33.335H17.1592C17.1429 33.6377 17.0387 33.9258 16.8467 34.1992C16.6546 34.4727 16.3975 34.6908 16.0752 34.8535C15.7562 35.0163 15.4176 35.0977 15.0596 35.0977C14.3402 35.0977 13.7673 34.8584 13.3408 34.3799C12.9176 33.8981 12.7061 33.2406 12.7061 32.4072V32.2559C12.7061 31.7415 12.8005 31.2842 12.9893 30.8838C13.1781 30.4834 13.4482 30.1725 13.7998 29.9512C14.1546 29.7298 14.5729 29.6191 15.0547 29.6191C15.6471 29.6191 16.1387 29.7965 16.5293 30.1514C16.9232 30.5062 17.1331 30.9668 17.1592 31.5332H16.3047C16.2786 31.1914 16.1484 30.9115 15.9141 30.6934C15.6829 30.472 15.3965 30.3613 15.0547 30.3613C14.5957 30.3613 14.2393 30.5273 13.9854 30.8594C13.7347 31.1882 13.6094 31.665 13.6094 32.29V32.4609C13.6094 33.0697 13.7347 33.5384 13.9854 33.8672C14.236 34.196 14.5941 34.3604 15.0596 34.3604ZM17.9355 32.3096C17.9355 31.792 18.0365 31.3265 18.2383 30.9131C18.4434 30.4997 18.7266 30.1807 19.0879 29.9561C19.4525 29.7314 19.8675 29.6191 20.333 29.6191C21.0524 29.6191 21.6335 29.8682 22.0762 30.3662C22.5221 30.8643 22.7451 31.5267 22.7451 32.3535V32.417C22.7451 32.9313 22.6458 33.3936 22.4473 33.8037C22.252 34.2106 21.9704 34.528 21.6025 34.7559C21.238 34.9837 20.818 35.0977 20.3428 35.0977C19.6266 35.0977 19.0456 34.8486 18.5996 34.3506C18.1569 33.8525 17.9355 33.1934 17.9355 32.373V32.3096ZM18.8438 32.417C18.8438 33.0029 18.9788 33.4733 19.249 33.8281C19.5225 34.1829 19.887 34.3604 20.3428 34.3604C20.8018 34.3604 21.1663 34.1813 21.4365 33.8232C21.7067 33.4619 21.8418 32.9574 21.8418 32.3096C21.8418 31.7301 21.7035 31.2614 21.4268 30.9033C21.1533 30.542 20.7887 30.3613 20.333 30.3613C19.887 30.3613 19.5273 30.5387 19.2539 30.8936C18.9805 31.2484 18.8438 31.7562 18.8438 32.417ZM27.1396 34.4775C26.7881 34.891 26.2721 35.0977 25.5918 35.0977C25.0286 35.0977 24.599 34.9349 24.3027 34.6094C24.0098 34.2806 23.8617 33.7956 23.8584 33.1543V29.7168H24.7617V33.1299C24.7617 33.9307 25.0872 34.3311 25.7383 34.3311C26.4284 34.3311 26.8874 34.0739 27.1152 33.5596V29.7168H28.0186V35H27.1592L27.1396 34.4775ZM30.25 29.7168L30.2793 30.3809C30.6829 29.873 31.2103 29.6191 31.8613 29.6191C32.9779 29.6191 33.541 30.249 33.5508 31.5088V35H32.6475V31.5039C32.6442 31.123 32.5563 30.8415 32.3838 30.6592C32.2145 30.4769 31.9492 30.3857 31.5879 30.3857C31.2949 30.3857 31.0378 30.4639 30.8164 30.6201C30.5951 30.7764 30.4225 30.9814 30.2988 31.2354V35H29.3955V29.7168H30.25ZM36.1387 28.4375V29.7168H37.125V30.415H36.1387V33.6914C36.1387 33.903 36.1826 34.0625 36.2705 34.1699C36.3584 34.2741 36.5081 34.3262 36.7197 34.3262C36.8239 34.3262 36.9671 34.3066 37.1494 34.2676V35C36.9118 35.0651 36.6807 35.0977 36.4561 35.0977C36.0524 35.0977 35.748 34.9756 35.543 34.7314C35.3379 34.4873 35.2354 34.1406 35.2354 33.6914V30.415H34.2734V29.7168H35.2354V28.4375H36.1387Z" fill="#10B981"/>
<path d="M18.5 12C21.8141 12 24.5 9.31406 24.5 6C24.5 2.68594 21.8141 0 18.5 0C15.1859 0 12.5 2.68594 12.5 6C12.5 9.31406 15.1859 12 18.5 12ZM22.7 13.5H21.9172C20.8766 13.9781 19.7188 14.25 18.5 14.25C17.2812 14.25 16.1281 13.9781 15.0828 13.5H14.3C10.8219 13.5 8 16.3219 8 19.8V21.75C8 22.9922 9.00781 24 10.25 24H26.75C27.9922 24 29 22.9922 29 21.75V19.8C29 16.3219 26.1781 13.5 22.7 13.5Z" fill="#10B981"/>
</svg>
