<svg width="12" height="12" viewBox="0 0 12 12" fill="none" xmlns="http://www.w3.org/2000/svg">
<path d="M8.67752 3.42167L4.83335 7.26583L2.73919 5.1775L1.91669 6L4.83335 8.91667L9.50002 4.25L8.67752 3.42167ZM6.00002 0.166666C2.78002 0.166666 0.166687 2.78 0.166687 6C0.166687 9.22 2.78002 11.8333 6.00002 11.8333C9.22002 11.8333 11.8334 9.22 11.8334 6C11.8334 2.78 9.22002 0.166666 6.00002 0.166666ZM6.00002 10.6667C3.42169 10.6667 1.33335 8.57833 1.33335 6C1.33335 3.42167 3.42169 1.33333 6.00002 1.33333C8.57835 1.33333 10.6667 3.42167 10.6667 6C10.6667 8.57833 8.57835 10.6667 6.00002 10.6667Z" fill="#FAFAFA"/>
</svg>
