<svg width="22" height="22" viewBox="0 0 22 22" fill="none" xmlns="http://www.w3.org/2000/svg">
<path d="M12.2281 2.49576L12.2284 2.49552C14.2318 0.133032 17.4001 -0.198055 19.5159 1.86221C22.02 4.30483 22.1597 8.73064 19.9047 11.3901L19.9046 11.3902L11.5903 21.2015C11.5902 21.2016 11.5902 21.2016 11.5902 21.2016C11.2528 21.5995 10.744 21.5995 10.4066 21.2016C10.4066 21.2016 10.4065 21.2016 10.4065 21.2015L2.09233 11.3904C-0.15869 8.73092 -0.0190241 4.30499 2.48509 1.86231C4.60104 -0.198256 7.77344 0.133311 9.77239 2.49514L9.77291 2.49576L10.6194 3.49262L11.0005 3.94145L11.3817 3.49262L12.2281 2.49576Z" stroke="#10B981"/>
</svg>
