<svg width="22" height="22" viewBox="0 0 22 22" fill="none" xmlns="http://www.w3.org/2000/svg">
<path d="M21.3075 19.1349L21.3075 19.135C21.5811 19.6685 21.5471 20.2714 21.3061 20.7404C21.0654 21.2088 20.646 21.5 20.1644 21.5H1.83541C1.35264 21.5 0.933711 21.2084 0.693409 20.7398C0.452695 20.2704 0.419341 19.6673 0.692307 19.135L0.692332 19.1349L9.85692 1.25877C9.85693 1.25875 9.85694 1.25873 9.85695 1.25871C10.1271 0.731943 10.5768 0.499787 11.0002 0.5C11.4239 0.500214 11.8735 0.733076 12.1431 1.25877L21.3075 19.1349ZM11.9493 14.9372C12.497 14.9248 12.8609 14.4548 12.8842 13.9742L13.1675 8.13044C13.1927 7.61086 12.8167 7.0625 12.2104 7.0625H9.78957C9.18325 7.0625 8.80735 7.61092 8.83255 8.13044L9.11587 13.9742C9.13916 14.4548 9.50309 14.9248 10.0507 14.9372C9.26019 15.3385 8.74308 16.2238 8.74308 17.1875C8.74308 18.4983 9.69982 19.6641 11 19.6641C12.3002 19.6641 13.257 18.4983 13.257 17.1875C13.257 16.2238 12.7399 15.3385 11.9493 14.9372Z" stroke="#10B981"/>
</svg>
