<svg width="22" height="22" viewBox="0 0 22 22" fill="none" xmlns="http://www.w3.org/2000/svg">
<path d="M15.785 0.924852L15.7849 0.924993L13.1808 5.26485C14.6087 5.60272 15.9096 6.26335 17.0039 7.16781L21.4648 0.795403L15.785 0.924852ZM15.785 0.924852C15.943 0.661357 16.2279 0.5 16.5352 0.5H21.3112M15.785 0.924852L21.3112 0.5M14.2238 17.3796L14.2239 17.38C14.3625 18.1904 13.5101 18.8093 12.7826 18.4261L11 17.4894L9.2188 18.4255C9.21856 18.4257 9.21832 18.4258 9.21808 18.4259C8.4873 18.8124 7.63837 18.1869 7.77647 17.3799L7.77652 17.3796L8.11743 15.3949L6.67614 13.9905C6.67609 13.9905 6.67604 13.9904 6.67599 13.9904C6.0865 13.4162 6.4113 12.414 7.22568 12.2957L14.2238 17.3796ZM14.2238 17.3796L13.8829 15.3949M14.2238 17.3796L13.8829 15.3949M21.3112 0.5C21.4626 0.5 21.552 0.670336 21.4649 0.795213L21.3112 0.5ZM13.8829 15.3949L15.3242 13.9905C15.3243 13.9905 15.3243 13.9904 15.3244 13.9904C15.9139 13.4162 15.5891 12.414 14.7747 12.2957L13.8829 15.3949ZM8.81913 5.26486C7.39122 5.60273 6.0903 6.2634 4.99603 7.16816L0.535181 0.795403C0.535157 0.79537 0.535133 0.795336 0.53511 0.795302C0.447886 0.670418 0.537257 0.5 0.688758 0.5H5.46473C5.61583 0.500002 5.76436 0.53914 5.89584 0.613603C6.02733 0.688065 6.13728 0.795313 6.215 0.924899L6.21506 0.924993L8.81913 5.26486ZM9.21842 12.0054L7.22619 12.2957H14.7742L12.7819 12.0054L11.8914 10.1992L11.8908 10.198C11.7084 9.83052 11.3485 9.64578 10.9991 9.64578C10.6505 9.64578 10.2913 9.82941 10.1089 10.1992C10.1089 10.1992 10.1089 10.1993 10.1089 10.1993L9.21842 12.0054ZM3.93747 14.4375C3.93747 10.5371 7.09955 7.375 11 7.375C14.9004 7.375 18.0625 10.5371 18.0625 14.4375C18.0625 18.3379 14.9004 21.5 11 21.5C7.09955 21.5 3.93747 18.3379 3.93747 14.4375Z" stroke="#10B981"/>
</svg>
