<svg width="22" height="22" viewBox="0 0 22 22" fill="none" xmlns="http://www.w3.org/2000/svg">
<path d="M12.1976 3.12543L12.1976 3.12544C12.1696 3.14749 12.1107 3.23254 12.1107 3.37926V21.2478C12.1107 21.392 12.1709 21.4667 12.2013 21.4893C12.2078 21.4941 12.2124 21.4965 12.2151 21.4976C12.2177 21.4965 12.2221 21.4945 12.2282 21.4905C12.2283 21.4905 12.2283 21.4905 12.2283 21.4905L12.4999 21.9102C15.1422 20.2003 18.9635 19.7338 20.853 19.6061C21.4981 19.5624 21.9996 18.8975 21.9996 18.1005L12.1976 3.12543ZM12.1976 3.12543C13.4033 2.17655 15.0087 1.55437 16.6 1.15161M12.1976 3.12543L16.6 1.15161M21.4996 1.51025V1.51003C21.4999 0.813217 21.0544 0.479108 20.7462 0.501341L21.4996 1.51025ZM21.4996 1.51025V18.1005C21.4996 18.7326 21.1142 19.0872 20.8193 19.1073L21.4996 1.51025ZM10.1112 2.73252L9.80175 3.12524C9.83428 3.15087 9.88889 3.22926 9.88889 3.37042V21.2512C9.88889 21.3948 9.82902 21.4691 9.79898 21.4915C9.79319 21.4958 9.78893 21.498 9.78629 21.4992C9.78374 21.4981 9.77976 21.4961 9.77421 21.4925L9.77415 21.4925C7.01495 19.7059 3.07614 19.2358 1.18029 19.1078L1.18002 19.1078C0.885592 19.088 0.5 18.7339 0.5 18.101V1.51025C0.5 0.81311 0.945749 0.478978 1.25401 0.501355C2.28333 0.576714 3.81536 0.75076 5.40001 1.1518C6.99119 1.5545 8.59653 2.17656 9.80196 3.12541L10.1112 2.73252ZM10.1112 2.73252C10.2888 2.87247 10.3889 3.11064 10.3889 3.37042V21.2512C10.3889 21.8169 9.90802 22.1749 9.5024 21.9122L0 18.101V1.51025C0 0.640566 0.586667 -0.0484044 1.29021 0.00266681C3.38326 0.15588 7.5434 0.711279 10.1112 2.73252ZM16.6 1.15161C18.1847 0.750499 19.7168 0.576461 20.746 0.501355L16.6 1.15161Z" stroke="#10B981"/>
</svg>
