<svg width="16" height="17" viewBox="0 0 16 17" fill="none" xmlns="http://www.w3.org/2000/svg">
<path d="M7.79169 17C9.02027 17 10.0168 16.0487 10.0168 14.875H5.56654C5.56654 16.0487 6.56311 17 7.79169 17ZM15.2839 12.0292C14.6118 11.3399 13.3544 10.3029 13.3544 6.90625C13.3544 4.32637 11.4593 2.26113 8.90409 1.75445V1.0625C8.90409 0.475801 8.40598 0 7.79169 0C7.1774 0 6.67929 0.475801 6.67929 1.0625V1.75445C4.12404 2.26113 2.229 4.32637 2.229 6.90625C2.229 10.3029 0.971548 11.3399 0.299516 12.0292C0.0908109 12.2433 -0.00171516 12.4993 2.40494e-05 12.75C0.00385031 13.2945 0.451523 13.8125 1.1166 13.8125H14.4668C15.1319 13.8125 15.5799 13.2945 15.5834 12.75C15.5851 12.4993 15.4926 12.243 15.2839 12.0292Z" fill="#71717A"/>
<circle cx="12.4667" cy="3.11668" r="3.11668" fill="#EB5757"/>
</svg>
