<svg width="12" height="12" viewBox="0 0 12 12" fill="none" xmlns="http://www.w3.org/2000/svg">
<path d="M5.41669 7.74996H6.58335V8.91663H5.41669V7.74996ZM5.41669 3.08329H6.58335V6.58329H5.41669V3.08329ZM5.99419 0.166626C2.77419 0.166626 0.166687 2.77996 0.166687 5.99996C0.166687 9.21996 2.77419 11.8333 5.99419 11.8333C9.22002 11.8333 11.8334 9.21996 11.8334 5.99996C11.8334 2.77996 9.22002 0.166626 5.99419 0.166626ZM6.00002 10.6666C3.42169 10.6666 1.33335 8.57829 1.33335 5.99996C1.33335 3.42163 3.42169 1.33329 6.00002 1.33329C8.57835 1.33329 10.6667 3.42163 10.6667 5.99996C10.6667 8.57829 8.57835 10.6666 6.00002 10.6666Z" fill="#FAFAFA"/>
</svg>
