<svg width="22" height="22" viewBox="0 0 22 22" fill="none" xmlns="http://www.w3.org/2000/svg">
<path d="M9.75 14.1453H11.9167V16.242H9.75V14.1453ZM9.75 5.75817H11.9167V12.0485H9.75V5.75817ZM10.8225 0.516235C4.8425 0.516235 0 5.21301 0 11.0001C0 16.7872 4.8425 21.484 10.8225 21.484C16.8133 21.484 21.6667 16.7872 21.6667 11.0001C21.6667 5.21301 16.8133 0.516235 10.8225 0.516235ZM10.8333 19.3872C6.045 19.3872 2.16667 15.634 2.16667 11.0001C2.16667 6.36623 6.045 2.61301 10.8333 2.61301C15.6217 2.61301 19.5 6.36623 19.5 11.0001C19.5 15.634 15.6217 19.3872 10.8333 19.3872Z" fill="#52525B"/>
</svg>
