<svg width="13" height="12" viewBox="0 0 13 12" fill="none" xmlns="http://www.w3.org/2000/svg">
<path d="M7.41418 11.1962L6.7751 11.8063C6.5045 12.0646 6.06693 12.0646 5.79921 11.8063L0.202951 6.46714C-0.0676502 6.20884 -0.0676502 5.79116 0.202951 5.53561L5.79921 0.193726C6.06981 -0.0645752 6.50738 -0.0645752 6.7751 0.193726L7.41418 0.803755C7.68766 1.0648 7.6819 1.49073 7.40266 1.74628L3.93379 4.90085H12.2073C12.5901 4.90085 12.8982 5.19487 12.8982 5.56034V6.43966C12.8982 6.80513 12.5901 7.09915 12.2073 7.09915H3.93379L7.40266 10.2537C7.68478 10.5093 7.69053 10.9352 7.41418 11.1962Z" fill="#71717A"/>
</svg>
